<svg data-v-0dd9719b="" version="1.0" xmlns="http://www.w3.org/2000/svg" xmlns:xlink="http://www.w3.org/1999/xlink" width="100%" height="100%" viewBox="0 0 340.000000 250.000000" preserveAspectRatio="xMidYMid meet" color-interpolation-filters="sRGB" style="margin: auto;"> <rect data-v-0dd9719b="" x="0" y="0" width="0" height="0" fill="#ffffff" fill-opacity="1" class="background"></rect> <rect data-v-0dd9719b="" x="0" y="0" width="100%" height="100%" fill="url(#watermark)" fill-opacity="1" class="watermarklayer"></rect> <g data-v-0dd9719b="" fill="#263869" class="bordersvg b-d1" transform="translate(45.56498718261719,77.30320358276367)"><polyline stroke="#E76A35" stroke-width="3" fill-opacity="0" fill="#fefdfd" points="124.43501281738281,20 124.43501281738281,10 0,0 0,95.39359283447266 124.43501281738281,85.39359283447266 124.43501281738281,75.39359283447266"></polyline> <g transform="translate(0,20)"><g><rect data-gra="graph-name-bg" stroke-width="2" class="i-icon-bg" x="0" y="0" width="248.87001037597656" height="55.39358901977539" fill-opacity="0"></rect> <!----> <!----> </g> <g transform="translate(10,3)"><g data-gra="path-name" fill-rule="" class="tp-name" transform="translate(0.0372467041015625,0)"><g transform="scale(1)"><g><path d="M29.3-24.18C30.43-30.82 26.1-34.8 19.47-34.8L5.51-34.8 0.64 0 14.85 0C22.56 0 26.79-3.39 28.46-9 29.3-11.65 29.35-16.12 24.87-18.53 27.58-19.81 29-22.61 29.3-24.18ZM12.44-21.19L13.32-27.38 18.43-27.38C22.86-27.38 21.83-21.19 17.55-21.19ZM10.57-7.72L11.55-14.85 16.66-14.85C21.87-14.85 20.99-7.72 15.68-7.72ZM44.78-34.8L35.88-34.8 32.64-11.75C31.51-3.59 37.8 0.49 44.78 0.49 51.71 0.49 59.28-3.59 60.41-11.75L63.66-34.8 54.76-34.8 51.52-11.75C51.12-8.95 48.57-7.57 45.96-7.57 43.45-7.57 41.14-8.95 41.54-11.75ZM68.87-34.8L64 0 77.03 0C84.01 0 90.99-3.44 92.12-11.45L93.79-23.15C94.92-31.26 88.87-34.8 81.89-34.8ZM73.98-8.26L76.58-26.59 81.06-26.59C83.47-26.59 85.19-25.07 84.94-23.15L83.27-11.45C83.02-9.59 80.86-8.26 78.45-8.26ZM124.12-27.87C122.5-33.43 117.58-35.29 113.06-35.29 106.18-35.29 98.8-31.61 97.67-23.5L96-11.55C94.87-3.54 101.11 0.49 108 0.49 114.98 0.49 122.3-3.54 123.43-11.55L124.61-20.2 110.6-20.2 109.62-13.03 115.17-13.03 114.98-11.55C114.63-8.9 111.88-7.57 109.32-7.57 106.72-7.57 104.46-8.9 104.8-11.55L106.47-23.5C106.82-26 109.42-27.48 111.88-27.48 113.84-27.48 115.71-26.54 116.25-24.48ZM138.42-26.49L153.76-26.49 154.94-34.8 130.71-34.8 125.84 0 150.07 0 151.2-8.31 135.87-8.31 136.6-13.52 150.71-13.52 151.79-21.33 137.69-21.33ZM183.99-26.79L185.17-34.85 157.5-34.85 156.32-26.79 165.7-26.79 162.02 0 170.91 0 174.6-26.79ZM197.36-34.8L188.56-34.8 183.7 0 192.49 0ZM198.74-11.45C197.61-3.49 204.24 0.49 211.47 0.49 214.12 0.49 216.88-0.05 219.33-1.13L221.79 2.06 227.25-2.56 224.94-5.31C226.26-6.98 227.25-9.04 227.59-11.45L229.31-23.35C230.44-31.31 223.76-35.29 216.53-35.29 209.31-35.29 201.64-31.36 200.46-23.35ZM209.26-23.35C209.65-26 212.7-27.33 215.55-27.33 218.3-27.33 220.91-26 220.51-23.35L218.89-12.44 216.83-14.89 211.37-10.67 213.83-7.72C210.78-6.49 207.09-8.26 207.54-11.45Z" transform="translate(-0.64000004529953, 35.290000915527344)"></path></g> <!----> <!----> <!----> <!----> <!----> <!----> <!----></g></g> <g data-gra="path-slogan" fill-rule="" class="tp-slogan" transform="translate(0,43.350006103515625)"><!----> <!----> <g transform="scale(1, 1)"><g transform="scale(1)"><path d="M0.65-4.73L0.65 0L1.25 0L1.25-2.12L3.05-2.12L3.05-2.62L1.25-2.62L1.25-4.22L3.37-4.22L3.37-4.73ZM4.21-4.73L4.21 0L4.81 0L4.81-4.73ZM6.10-4.73L6.10 0L6.67 0L6.67-2.47C6.67-2.72 6.66-2.97 6.65-3.22C6.63-3.46 6.61-3.71 6.59-3.95L6.62-3.95L7.13-2.98L8.85 0L9.47 0L9.47-4.73L8.90-4.73L8.90-2.28C8.90-2.03 8.91-1.78 8.92-1.52C8.94-1.27 8.96-1.02 8.97-0.78L8.94-0.78L8.43-1.76L6.72-4.73ZM12.78-1.92L11.36-1.92L11.58-2.64C11.67-2.91 11.75-3.17 11.82-3.43C11.90-3.70 11.98-3.96 12.05-4.24L12.08-4.24C12.15-3.96 12.23-3.70 12.31-3.43C12.38-3.17 12.47-2.91 12.55-2.64ZM12.93-1.44L13.37 0L14.02 0L12.42-4.73L11.74-4.73L10.14 0L10.75 0L11.21-1.44ZM14.69-4.73L14.69 0L15.26 0L15.26-2.47C15.26-2.72 15.25-2.97 15.23-3.22C15.21-3.46 15.19-3.71 15.18-3.95L15.20-3.95L15.72-2.98L17.43 0L18.05 0L18.05-4.73L17.48-4.73L17.48-2.28C17.48-2.03 17.49-1.78 17.51-1.52C17.52-1.27 17.54-1.02 17.55-0.78L17.52-0.78L17.01-1.76L15.31-4.73ZM19.07-2.36C19.07-1.98 19.13-1.63 19.23-1.33C19.33-1.02 19.48-0.77 19.66-0.56C19.85-0.35 20.07-0.19 20.32-0.08C20.57 0.03 20.84 0.09 21.14 0.09C21.44 0.09 21.71 0.03 21.95-0.09C22.18-0.21 22.40-0.38 22.58-0.60L22.24-0.97C22.09-0.80 21.93-0.67 21.76-0.58C21.59-0.49 21.39-0.44 21.16-0.44C20.93-0.44 20.73-0.49 20.55-0.58C20.37-0.67 20.22-0.80 20.09-0.97C19.97-1.13 19.87-1.34 19.80-1.57C19.73-1.81 19.69-2.08 19.69-2.38C19.69-2.67 19.73-2.94 19.80-3.17C19.87-3.41 19.97-3.61 20.10-3.77C20.23-3.94 20.39-4.07 20.57-4.15C20.76-4.24 20.96-4.29 21.19-4.29C21.39-4.29 21.56-4.25 21.72-4.17C21.87-4.09 22.00-3.98 22.13-3.85L22.47-4.23C22.33-4.38 22.15-4.52 21.93-4.64C21.72-4.75 21.47-4.81 21.18-4.81C20.88-4.81 20.60-4.76 20.34-4.64C20.08-4.53 19.86-4.37 19.67-4.16C19.48-3.95 19.34-3.69 19.23-3.39C19.13-3.08 19.07-2.74 19.07-2.36ZM23.46-4.73L23.46 0L24.06 0L24.06-4.73ZM27.37-1.92L25.95-1.92L26.17-2.64C26.26-2.91 26.34-3.17 26.42-3.43C26.49-3.70 26.57-3.96 26.64-4.24L26.67-4.24C26.75-3.96 26.82-3.70 26.90-3.43C26.98-3.17 27.06-2.91 27.14-2.64ZM27.52-1.44L27.97 0L28.61 0L27.01-4.73L26.33-4.73L24.73 0L25.34 0L25.80-1.44ZM29.28-4.73L29.28 0L31.94 0L31.94-0.51L29.88-0.51L29.88-4.73ZM34.25-1.03L33.89-0.61C34.10-0.40 34.34-0.23 34.62-0.10C34.91 0.02 35.22 0.09 35.55 0.09C35.80 0.09 36.02 0.05 36.22-0.02C36.41-0.09 36.58-0.18 36.72-0.31C36.86-0.43 36.97-0.57 37.04-0.74C37.12-0.90 37.15-1.07 37.15-1.26C37.15-1.43 37.13-1.59 37.08-1.72C37.03-1.85 36.96-1.97 36.87-2.06C36.79-2.16 36.68-2.25 36.56-2.32C36.44-2.40 36.32-2.46 36.18-2.52L35.51-2.81C35.41-2.85 35.32-2.89 35.23-2.94C35.14-2.98 35.05-3.03 34.98-3.09C34.90-3.16 34.84-3.22 34.79-3.30C34.75-3.38 34.73-3.48 34.73-3.60C34.73-3.81 34.81-3.98 34.97-4.10C35.13-4.23 35.34-4.29 35.60-4.29C35.83-4.29 36.02-4.25 36.20-4.17C36.37-4.09 36.53-3.98 36.68-3.84L37.00-4.23C36.83-4.40 36.63-4.54 36.39-4.65C36.15-4.76 35.89-4.81 35.60-4.81C35.39-4.81 35.19-4.78 35.01-4.72C34.83-4.66 34.67-4.57 34.54-4.46C34.41-4.34 34.31-4.21 34.23-4.06C34.16-3.90 34.12-3.74 34.12-3.56C34.12-3.39 34.15-3.23 34.21-3.10C34.26-2.97 34.34-2.86 34.43-2.76C34.52-2.66 34.62-2.58 34.74-2.51C34.86-2.45 34.97-2.39 35.08-2.34L35.76-2.05C35.87-1.99 35.97-1.94 36.07-1.90C36.16-1.85 36.24-1.79 36.31-1.73C36.38-1.67 36.44-1.60 36.48-1.52C36.52-1.43 36.54-1.33 36.54-1.21C36.54-0.98 36.45-0.79 36.28-0.65C36.11-0.51 35.87-0.44 35.55-0.44C35.31-0.44 35.07-0.49 34.84-0.60C34.62-0.71 34.42-0.85 34.25-1.03ZM38.08-4.73L38.08 0L40.88 0L40.88-0.51L38.68-0.51L38.68-2.23L40.48-2.23L40.48-2.74L38.68-2.74L38.68-4.22L40.81-4.22L40.81-4.73ZM42.48-2.49L42.48-4.24L43.27-4.24C43.64-4.24 43.93-4.18 44.12-4.06C44.32-3.93 44.42-3.71 44.42-3.40C44.42-3.09 44.32-2.86 44.12-2.71C43.93-2.56 43.64-2.49 43.27-2.49ZM44.48 0L45.15 0L43.96-2.06C44.28-2.14 44.54-2.29 44.73-2.51C44.92-2.74 45.02-3.03 45.02-3.40C45.02-3.65 44.97-3.85 44.89-4.02C44.81-4.19 44.70-4.33 44.55-4.43C44.40-4.54 44.23-4.61 44.02-4.66C43.82-4.70 43.60-4.73 43.36-4.73L41.88-4.73L41.88 0L42.48 0L42.48-2.00L43.34-2.00ZM45.32-4.73L46.83 0L47.53 0L49.03-4.73L48.42-4.73L47.66-2.18C47.58-1.89 47.50-1.63 47.44-1.39C47.37-1.15 47.29-0.89 47.21-0.61L47.18-0.61C47.09-0.89 47.01-1.15 46.94-1.39C46.88-1.63 46.80-1.89 46.72-2.18L45.96-4.73ZM49.68-4.73L49.68 0L50.28 0L50.28-4.73ZM51.30-2.36C51.30-1.98 51.35-1.63 51.45-1.33C51.56-1.02 51.70-0.77 51.89-0.56C52.07-0.35 52.29-0.19 52.54-0.08C52.79 0.03 53.07 0.09 53.37 0.09C53.67 0.09 53.94 0.03 54.17-0.09C54.41-0.21 54.62-0.38 54.81-0.60L54.47-0.97C54.32-0.80 54.15-0.67 53.98-0.58C53.81-0.49 53.61-0.44 53.38-0.44C53.16-0.44 52.95-0.49 52.77-0.58C52.59-0.67 52.44-0.80 52.32-0.97C52.19-1.13 52.09-1.34 52.02-1.57C51.95-1.81 51.92-2.08 51.92-2.38C51.92-2.67 51.96-2.94 52.03-3.17C52.10-3.41 52.20-3.61 52.33-3.77C52.46-3.94 52.62-4.07 52.80-4.15C52.98-4.24 53.18-4.29 53.41-4.29C53.61-4.29 53.79-4.25 53.94-4.17C54.09-4.09 54.23-3.98 54.35-3.85L54.69-4.23C54.55-4.38 54.38-4.52 54.16-4.64C53.94-4.75 53.69-4.81 53.40-4.81C53.10-4.81 52.82-4.76 52.56-4.64C52.31-4.53 52.08-4.37 51.90-4.16C51.71-3.95 51.56-3.69 51.46-3.39C51.35-3.08 51.30-2.74 51.30-2.36ZM55.69-4.73L55.69 0L58.48 0L58.48-0.51L56.29-0.51L56.29-2.23L58.08-2.23L58.08-2.74L56.29-2.74L56.29-4.22L58.41-4.22L58.41-4.73ZM59.50-1.03L59.14-0.61C59.35-0.40 59.59-0.23 59.87-0.10C60.16 0.02 60.47 0.09 60.80 0.09C61.05 0.09 61.27 0.05 61.47-0.02C61.66-0.09 61.83-0.18 61.97-0.31C62.11-0.43 62.22-0.57 62.29-0.74C62.37-0.90 62.40-1.07 62.40-1.26C62.40-1.43 62.38-1.59 62.33-1.72C62.28-1.85 62.21-1.97 62.12-2.06C62.04-2.16 61.93-2.25 61.81-2.32C61.69-2.40 61.57-2.46 61.43-2.52L60.76-2.81C60.66-2.85 60.57-2.89 60.48-2.94C60.39-2.98 60.30-3.03 60.23-3.09C60.15-3.16 60.09-3.22 60.04-3.30C60.00-3.38 59.98-3.48 59.98-3.60C59.98-3.81 60.06-3.98 60.22-4.10C60.38-4.23 60.59-4.29 60.85-4.29C61.08-4.29 61.27-4.25 61.45-4.17C61.62-4.09 61.78-3.98 61.93-3.84L62.25-4.23C62.08-4.40 61.88-4.54 61.64-4.65C61.40-4.76 61.14-4.81 60.85-4.81C60.64-4.81 60.44-4.78 60.26-4.72C60.08-4.66 59.92-4.57 59.79-4.46C59.66-4.34 59.56-4.21 59.48-4.06C59.41-3.90 59.37-3.74 59.37-3.56C59.37-3.39 59.40-3.23 59.46-3.10C59.51-2.97 59.59-2.86 59.68-2.76C59.77-2.66 59.87-2.58 59.99-2.51C60.10-2.45 60.22-2.39 60.33-2.34L61.01-2.05C61.12-1.99 61.22-1.94 61.32-1.90C61.41-1.85 61.49-1.79 61.56-1.73C61.63-1.67 61.69-1.60 61.73-1.52C61.77-1.43 61.79-1.33 61.79-1.21C61.79-0.98 61.70-0.79 61.53-0.65C61.36-0.51 61.12-0.44 60.80-0.44C60.56-0.44 60.32-0.49 60.09-0.60C59.87-0.71 59.67-0.85 59.50-1.03ZM63.02 0.88L63.17 1.23C63.46 1.10 63.69 0.92 63.86 0.69C64.03 0.46 64.11 0.19 64.11-0.12C64.11-0.34 64.07-0.51 63.98-0.63C63.89-0.76 63.77-0.82 63.61-0.82C63.49-0.82 63.39-0.78 63.30-0.71C63.22-0.64 63.17-0.53 63.17-0.40C63.17-0.27 63.22-0.17 63.30-0.10C63.38-0.03 63.48 0.01 63.60 0.01C63.63 0.01 63.66 0.00 63.67 0C63.67 0.20 63.61 0.37 63.50 0.52C63.38 0.67 63.23 0.79 63.02 0.88ZM66.58-4.73L66.58 0L68.09 0C68.35 0 68.60-0.03 68.82-0.09C69.04-0.14 69.23-0.23 69.39-0.35C69.54-0.46 69.67-0.61 69.75-0.78C69.84-0.95 69.88-1.15 69.88-1.38C69.88-1.71 69.79-1.97 69.60-2.15C69.40-2.34 69.13-2.46 68.79-2.51L68.79-2.54C69.07-2.62 69.27-2.75 69.41-2.94C69.54-3.13 69.61-3.34 69.61-3.57C69.61-3.78 69.57-3.96 69.49-4.10C69.41-4.25 69.30-4.37 69.16-4.46C69.02-4.55 68.85-4.62 68.65-4.66C68.45-4.71 68.23-4.73 67.99-4.73ZM67.88-2.71L67.18-2.71L67.18-4.25L67.91-4.25C68.28-4.25 68.56-4.20 68.74-4.08C68.93-3.97 69.02-3.78 69.02-3.52C69.02-3.26 68.93-3.06 68.76-2.92C68.58-2.78 68.29-2.71 67.88-2.71ZM68.00-0.48L67.18-0.48L67.18-2.26L68.00-2.26C68.42-2.26 68.74-2.19 68.96-2.06C69.18-1.92 69.29-1.71 69.29-1.41C69.29-1.09 69.18-0.85 68.95-0.70C68.73-0.55 68.41-0.48 68.00-0.48ZM70.80-4.73L70.80-1.95C70.80-1.57 70.84-1.25 70.93-0.99C71.01-0.74 71.13-0.52 71.29-0.36C71.44-0.20 71.62-0.09 71.83-0.02C72.03 0.05 72.26 0.09 72.50 0.09C72.74 0.09 72.96 0.05 73.17-0.02C73.38-0.09 73.55-0.20 73.71-0.36C73.86-0.52 73.98-0.74 74.06-0.99C74.15-1.25 74.19-1.57 74.19-1.95L74.19-4.73L73.62-4.73L73.62-1.94C73.62-1.65 73.59-1.42 73.53-1.23C73.47-1.03 73.39-0.88 73.29-0.76C73.19-0.65 73.07-0.57 72.94-0.52C72.80-0.46 72.66-0.44 72.50-0.44C72.35-0.44 72.20-0.46 72.07-0.52C71.93-0.57 71.82-0.65 71.72-0.76C71.62-0.88 71.54-1.03 71.48-1.23C71.43-1.42 71.40-1.65 71.40-1.94L71.40-4.73ZM75.47-4.73L75.47 0L76.68 0C77.03 0 77.35-0.05 77.62-0.16C77.90-0.27 78.13-0.43 78.31-0.63C78.50-0.83 78.64-1.08 78.74-1.38C78.84-1.68 78.88-2.01 78.88-2.39C78.88-3.14 78.69-3.72 78.31-4.12C77.93-4.53 77.38-4.73 76.65-4.73ZM76.61-0.49L76.07-0.49L76.07-4.24L76.61-4.24C77.16-4.24 77.57-4.08 77.85-3.76C78.13-3.44 78.26-2.99 78.26-2.39C78.26-1.78 78.13-1.32 77.85-0.99C77.57-0.66 77.16-0.49 76.61-0.49ZM79.63-2.36C79.63-1.98 79.68-1.63 79.78-1.33C79.89-1.02 80.04-0.77 80.22-0.56C80.41-0.35 80.63-0.19 80.89-0.08C81.15 0.03 81.44 0.09 81.75 0.09C82.07 0.09 82.35 0.03 82.61-0.07C82.86-0.17 83.06-0.30 83.21-0.46L83.21-2.45L81.67-2.45L81.67-1.95L82.67-1.95L82.67-0.72C82.57-0.63 82.45-0.57 82.30-0.52C82.14-0.46 81.98-0.44 81.82-0.44C81.56-0.44 81.34-0.49 81.14-0.58C80.95-0.67 80.78-0.80 80.65-0.97C80.52-1.13 80.42-1.34 80.35-1.57C80.28-1.81 80.25-2.08 80.25-2.38C80.25-2.67 80.28-2.94 80.36-3.17C80.43-3.41 80.54-3.61 80.67-3.77C80.81-3.94 80.97-4.07 81.16-4.15C81.35-4.24 81.57-4.29 81.81-4.29C82.05-4.29 82.25-4.25 82.40-4.16C82.56-4.08 82.70-3.97 82.82-3.85L83.16-4.23C83.02-4.37 82.84-4.51 82.62-4.63C82.40-4.75 82.13-4.81 81.80-4.81C81.49-4.81 81.19-4.76 80.93-4.64C80.67-4.53 80.44-4.37 80.24-4.16C80.05-3.95 79.90-3.69 79.79-3.39C79.68-3.08 79.63-2.74 79.63-2.36ZM84.35-4.73L84.35 0L87.14 0L87.14-0.51L84.94-0.51L84.94-2.23L86.74-2.23L86.74-2.74L84.94-2.74L84.94-4.22L87.07-4.22L87.07-4.73ZM89.12-4.22L89.12 0L89.73 0L89.73-4.22L91.16-4.22L91.16-4.73L87.70-4.73L87.70-4.22ZM92.01-4.73L92.01 0L92.60 0L92.60-4.73ZM93.90-4.73L93.90 0L94.47 0L94.47-2.47C94.47-2.72 94.46-2.97 94.44-3.22C94.43-3.46 94.41-3.71 94.39-3.95L94.42-3.95L94.93-2.98L96.65 0L97.27 0L97.27-4.73L96.70-4.73L96.70-2.28C96.70-2.03 96.71-1.78 96.72-1.52C96.74-1.27 96.75-1.02 96.77-0.78L96.74-0.78L96.23-1.76L94.52-4.73ZM98.29-2.36C98.29-1.98 98.34-1.63 98.45-1.33C98.55-1.02 98.70-0.77 98.89-0.56C99.07-0.35 99.30-0.19 99.56-0.08C99.82 0.03 100.10 0.09 100.42 0.09C100.73 0.09 101.02 0.03 101.27-0.07C101.52-0.17 101.72-0.30 101.88-0.46L101.88-2.45L100.33-2.45L100.33-1.95L101.33-1.95L101.33-0.72C101.23-0.63 101.11-0.57 100.96-0.52C100.81-0.46 100.65-0.44 100.48-0.44C100.23-0.44 100.00-0.49 99.81-0.58C99.61-0.67 99.45-0.80 99.32-0.97C99.18-1.13 99.08-1.34 99.01-1.57C98.94-1.81 98.91-2.08 98.91-2.38C98.91-2.67 98.95-2.94 99.02-3.17C99.10-3.41 99.20-3.61 99.33-3.77C99.47-3.94 99.63-4.07 99.82-4.15C100.02-4.24 100.23-4.29 100.47-4.29C100.71-4.29 100.91-4.25 101.07-4.16C101.22-4.08 101.36-3.97 101.48-3.85L101.82-4.23C101.68-4.37 101.50-4.51 101.28-4.63C101.06-4.75 100.79-4.81 100.47-4.81C100.15-4.81 99.86-4.76 99.59-4.64C99.33-4.53 99.10-4.37 98.91-4.16C98.71-3.95 98.56-3.69 98.45-3.39C98.34-3.08 98.29-2.74 98.29-2.36ZM102.70 0.88L102.84 1.23C103.14 1.10 103.37 0.92 103.54 0.69C103.70 0.46 103.79 0.19 103.79-0.12C103.79-0.34 103.74-0.51 103.65-0.63C103.57-0.76 103.44-0.82 103.29-0.82C103.17-0.82 103.07-0.78 102.98-0.71C102.89-0.64 102.85-0.53 102.85-0.40C102.85-0.27 102.89-0.17 102.98-0.10C103.06-0.03 103.16 0.01 103.28 0.01C103.31 0.01 103.33 0.00 103.35 0C103.35 0.20 103.29 0.37 103.18 0.52C103.06 0.67 102.90 0.79 102.70 0.88ZM106.26-4.73L106.26 0L106.86 0L106.86-1.87L107.71-1.87C107.97-1.87 108.20-1.90 108.42-1.96C108.63-2.02 108.81-2.11 108.97-2.23C109.12-2.35 109.24-2.51 109.33-2.69C109.41-2.87 109.45-3.09 109.45-3.34C109.45-3.60 109.41-3.81 109.33-3.99C109.24-4.17 109.12-4.31 108.97-4.42C108.82-4.53 108.64-4.61 108.42-4.66C108.20-4.70 107.97-4.73 107.71-4.73ZM107.64-2.36L106.86-2.36L106.86-4.24L107.64-4.24C108.04-4.24 108.35-4.18 108.55-4.05C108.75-3.91 108.85-3.68 108.85-3.34C108.85-3.00 108.75-2.75 108.55-2.60C108.35-2.44 108.05-2.36 107.64-2.36ZM110.41-4.73L110.41 0L113.21 0L113.21-0.51L111.01-0.51L111.01-2.23L112.80-2.23L112.80-2.74L111.01-2.74L111.01-4.22L113.13-4.22L113.13-4.73ZM114.81-2.49L114.81-4.24L115.60-4.24C115.97-4.24 116.25-4.18 116.45-4.06C116.65-3.93 116.74-3.71 116.74-3.40C116.74-3.09 116.65-2.86 116.45-2.71C116.25-2.56 115.97-2.49 115.60-2.49ZM116.80 0L117.48 0L116.28-2.06C116.60-2.14 116.86-2.29 117.05-2.51C117.25-2.74 117.34-3.03 117.34-3.40C117.34-3.65 117.30-3.85 117.22-4.02C117.14-4.19 117.02-4.33 116.88-4.43C116.73-4.54 116.56-4.61 116.35-4.66C116.15-4.70 115.92-4.73 115.68-4.73L114.21-4.73L114.21 0L114.81 0L114.81-2.00L115.66-2.00ZM118.31-1.03L117.95-0.61C118.15-0.40 118.40-0.23 118.68-0.10C118.97 0.02 119.27 0.09 119.60 0.09C119.85 0.09 120.08 0.05 120.27-0.02C120.47-0.09 120.64-0.18 120.78-0.31C120.92-0.43 121.03-0.57 121.10-0.74C121.17-0.90 121.21-1.07 121.21-1.26C121.21-1.43 121.19-1.59 121.14-1.72C121.09-1.85 121.02-1.97 120.93-2.06C120.84-2.16 120.74-2.25 120.62-2.32C120.50-2.40 120.37-2.46 120.24-2.52L119.57-2.81C119.47-2.85 119.38-2.89 119.29-2.94C119.20-2.98 119.11-3.03 119.04-3.09C118.96-3.16 118.90-3.22 118.85-3.30C118.81-3.38 118.78-3.48 118.78-3.60C118.78-3.81 118.86-3.98 119.02-4.10C119.19-4.23 119.40-4.29 119.66-4.29C119.88-4.29 120.08-4.25 120.26-4.17C120.43-4.09 120.59-3.98 120.74-3.84L121.06-4.23C120.89-4.40 120.69-4.54 120.45-4.65C120.21-4.76 119.95-4.81 119.66-4.81C119.45-4.81 119.25-4.78 119.07-4.72C118.89-4.66 118.73-4.57 118.60-4.46C118.47-4.34 118.36-4.21 118.29-4.06C118.22-3.90 118.18-3.74 118.18-3.56C118.18-3.39 118.21-3.23 118.26-3.10C118.32-2.97 118.40-2.86 118.49-2.76C118.58-2.66 118.68-2.58 118.80-2.51C118.91-2.45 119.03-2.39 119.14-2.34L119.81-2.05C119.92-1.99 120.03-1.94 120.12-1.90C120.22-1.85 120.30-1.79 120.37-1.73C120.44-1.67 120.50-1.60 120.54-1.52C120.58-1.43 120.60-1.33 120.60-1.21C120.60-0.98 120.51-0.79 120.34-0.65C120.17-0.51 119.92-0.44 119.61-0.44C119.37-0.44 119.13-0.49 118.90-0.60C118.67-0.71 118.48-0.85 118.31-1.03ZM123.88 0.09C124.18 0.09 124.46 0.03 124.70-0.09C124.95-0.20 125.16-0.37 125.34-0.58C125.52-0.79 125.66-1.05 125.76-1.36C125.86-1.66 125.91-2.01 125.91-2.39C125.91-2.76 125.86-3.10 125.76-3.40C125.66-3.70 125.52-3.95 125.34-4.16C125.16-4.37 124.95-4.53 124.70-4.64C124.46-4.76 124.18-4.81 123.88-4.81C123.59-4.81 123.31-4.76 123.07-4.65C122.82-4.54 122.61-4.38 122.43-4.17C122.25-3.96 122.11-3.71 122.02-3.40C121.92-3.10 121.87-2.76 121.87-2.39C121.87-2.01 121.92-1.66 122.02-1.36C122.11-1.05 122.25-0.79 122.43-0.58C122.61-0.37 122.82-0.20 123.07-0.09C123.31 0.03 123.59 0.09 123.88 0.09ZM123.88-0.44C123.67-0.44 123.48-0.49 123.31-0.58C123.14-0.67 123.00-0.80 122.87-0.97C122.75-1.14 122.66-1.34 122.59-1.58C122.52-1.82 122.49-2.09 122.49-2.39C122.49-2.68 122.52-2.94 122.59-3.18C122.66-3.41 122.75-3.61 122.87-3.78C123.00-3.94 123.14-4.07 123.31-4.15C123.48-4.24 123.67-4.29 123.88-4.29C124.10-4.29 124.29-4.24 124.46-4.15C124.63-4.07 124.77-3.94 124.90-3.78C125.02-3.61 125.11-3.41 125.18-3.18C125.25-2.94 125.28-2.68 125.28-2.39C125.28-2.09 125.25-1.82 125.18-1.58C125.11-1.34 125.02-1.14 124.90-0.97C124.77-0.80 124.63-0.67 124.46-0.58C124.29-0.49 124.10-0.44 123.88-0.44ZM126.93-4.73L126.93 0L127.50 0L127.50-2.47C127.50-2.72 127.49-2.97 127.47-3.22C127.45-3.46 127.44-3.71 127.42-3.95L127.44-3.95L127.96-2.98L129.67 0L130.29 0L130.29-4.73L129.72-4.73L129.72-2.28C129.72-2.03 129.73-1.78 129.75-1.52C129.76-1.27 129.78-1.02 129.79-0.78L129.77-0.78L129.25-1.76L127.55-4.73ZM133.60-1.92L132.18-1.92L132.40-2.64C132.49-2.91 132.57-3.17 132.65-3.43C132.72-3.70 132.80-3.96 132.87-4.24L132.90-4.24C132.98-3.96 133.05-3.70 133.13-3.43C133.21-3.17 133.29-2.91 133.38-2.64ZM133.75-1.44L134.20 0L134.84 0L133.24-4.73L132.56-4.73L130.96 0L131.57 0L132.03-1.44ZM135.51-4.73L135.51 0L138.17 0L138.17-0.51L136.11-0.51L136.11-4.73ZM140.47-4.73L140.47 0L141.06 0L141.06-2.12L142.87-2.12L142.87-2.62L141.06-2.62L141.06-4.22L143.19-4.22L143.19-4.73ZM144.03-4.73L144.03 0L144.62 0L144.62-4.73ZM145.92-4.73L145.92 0L146.49 0L146.49-2.47C146.49-2.72 146.48-2.97 146.46-3.22C146.45-3.46 146.43-3.71 146.41-3.95L146.44-3.95L146.95-2.98L148.67 0L149.29 0L149.29-4.73L148.72-4.73L148.72-2.28C148.72-2.03 148.73-1.78 148.74-1.52C148.76-1.27 148.77-1.02 148.79-0.78L148.76-0.78L148.25-1.76L146.54-4.73ZM152.59-1.92L151.17-1.92L151.40-2.64C151.48-2.91 151.57-3.17 151.64-3.43C151.72-3.70 151.79-3.96 151.87-4.24L151.89-4.24C151.97-3.96 152.05-3.70 152.13-3.43C152.20-3.17 152.28-2.91 152.37-2.64ZM152.74-1.44L153.19 0L153.83 0L152.23-4.73L151.56-4.73L149.96 0L150.57 0L151.02-1.44ZM154.50-4.73L154.50 0L155.07 0L155.07-2.47C155.07-2.72 155.06-2.97 155.05-3.22C155.03-3.46 155.01-3.71 154.99-3.95L155.02-3.95L155.53-2.98L157.25 0L157.87 0L157.87-4.73L157.30-4.73L157.30-2.28C157.30-2.03 157.31-1.78 157.32-1.52C157.34-1.27 157.36-1.02 157.37-0.78L157.34-0.78L156.83-1.76L155.12-4.73ZM158.89-2.36C158.89-1.98 158.94-1.63 159.05-1.33C159.15-1.02 159.29-0.77 159.48-0.56C159.66-0.35 159.88-0.19 160.13-0.08C160.39 0.03 160.66 0.09 160.96 0.09C161.26 0.09 161.53 0.03 161.77-0.09C162.00-0.21 162.21-0.38 162.40-0.60L162.06-0.97C161.91-0.80 161.75-0.67 161.58-0.58C161.41-0.49 161.20-0.44 160.97-0.44C160.75-0.44 160.55-0.49 160.37-0.58C160.19-0.67 160.03-0.80 159.91-0.97C159.78-1.13 159.69-1.34 159.62-1.57C159.55-1.81 159.51-2.08 159.51-2.38C159.51-2.67 159.55-2.94 159.62-3.17C159.69-3.41 159.79-3.61 159.92-3.77C160.05-3.94 160.21-4.07 160.39-4.15C160.57-4.24 160.78-4.29 161.00-4.29C161.20-4.29 161.38-4.25 161.53-4.17C161.68-4.09 161.82-3.98 161.95-3.85L162.29-4.23C162.15-4.38 161.97-4.52 161.75-4.64C161.54-4.75 161.28-4.81 161.00-4.81C160.69-4.81 160.41-4.76 160.16-4.64C159.90-4.53 159.68-4.37 159.49-4.16C159.30-3.95 159.16-3.69 159.05-3.39C158.94-3.08 158.89-2.74 158.89-2.36ZM163.28-4.73L163.28 0L166.08 0L166.08-0.51L163.88-0.51L163.88-2.23L165.67-2.23L165.67-2.74L163.88-2.74L163.88-4.22L166.00-4.22L166.00-4.73ZM166.77 0.88L166.91 1.23C167.20 1.10 167.44 0.92 167.60 0.69C167.77 0.46 167.86 0.19 167.86-0.12C167.86-0.34 167.81-0.51 167.72-0.63C167.63-0.76 167.51-0.82 167.36-0.82C167.24-0.82 167.14-0.78 167.05-0.71C166.96-0.64 166.92-0.53 166.92-0.40C166.92-0.27 166.96-0.17 167.05-0.10C167.13-0.03 167.23 0.01 167.34 0.01C167.38 0.01 167.40 0.00 167.42 0C167.42 0.20 167.36 0.37 167.24 0.52C167.13 0.67 166.97 0.79 166.77 0.88ZM170.33-4.73L170.33 0L173.12 0L173.12-0.51L170.93-0.51L170.93-2.23L172.72-2.23L172.72-2.74L170.93-2.74L170.93-4.22L173.05-4.22L173.05-4.73ZM174.96-2.44L173.58 0L174.22 0L174.90-1.28C174.96-1.39 175.02-1.51 175.08-1.63C175.15-1.75 175.21-1.89 175.28-2.03L175.31-2.03C175.38-1.89 175.45-1.75 175.52-1.63C175.58-1.51 175.65-1.39 175.71-1.28L176.40 0L177.06 0L175.69-2.41L176.98-4.73L176.34-4.73L175.72-3.52C175.66-3.41 175.61-3.30 175.56-3.20C175.50-3.09 175.45-2.97 175.38-2.83L175.35-2.83C175.28-2.97 175.21-3.09 175.16-3.20C175.10-3.30 175.04-3.41 174.98-3.52L174.34-4.73L173.68-4.73ZM177.82-4.73L177.82 0L178.42 0L178.42-1.87L179.27-1.87C179.53-1.87 179.77-1.90 179.98-1.96C180.19-2.02 180.38-2.11 180.53-2.23C180.68-2.35 180.80-2.51 180.89-2.69C180.97-2.87 181.01-3.09 181.01-3.34C181.01-3.60 180.97-3.81 180.89-3.99C180.80-4.17 180.69-4.31 180.53-4.42C180.38-4.53 180.20-4.61 179.98-4.66C179.77-4.70 179.53-4.73 179.27-4.73ZM179.20-2.36L178.42-2.36L178.42-4.24L179.20-4.24C179.61-4.24 179.91-4.18 180.11-4.05C180.31-3.91 180.42-3.68 180.42-3.34C180.42-3.00 180.32-2.75 180.12-2.60C179.92-2.44 179.61-2.36 179.20-2.36ZM181.97-4.73L181.97 0L184.77 0L184.77-0.51L182.57-0.51L182.57-2.23L184.36-2.23L184.36-2.74L182.57-2.74L182.57-4.22L184.70-4.22L184.70-4.73ZM185.77-4.73L185.77 0L186.34 0L186.34-2.47C186.34-2.72 186.33-2.97 186.31-3.22C186.30-3.46 186.28-3.71 186.26-3.95L186.29-3.95L186.80-2.98L188.52 0L189.13 0L189.13-4.73L188.57-4.73L188.57-2.28C188.57-2.03 188.57-1.78 188.59-1.52C188.61-1.27 188.62-1.02 188.64-0.78L188.61-0.78L188.10-1.76L186.39-4.73ZM190.45-1.03L190.09-0.61C190.29-0.40 190.54-0.23 190.82-0.10C191.10 0.02 191.41 0.09 191.74 0.09C191.99 0.09 192.22 0.05 192.41-0.02C192.61-0.09 192.78-0.18 192.92-0.31C193.06-0.43 193.16-0.57 193.24-0.74C193.31-0.90 193.35-1.07 193.35-1.26C193.35-1.43 193.33-1.59 193.27-1.72C193.22-1.85 193.16-1.97 193.07-2.06C192.98-2.16 192.88-2.25 192.76-2.32C192.64-2.40 192.51-2.46 192.38-2.52L191.71-2.81C191.61-2.85 191.52-2.89 191.43-2.94C191.34-2.98 191.25-3.03 191.17-3.09C191.10-3.16 191.04-3.22 190.99-3.30C190.94-3.38 190.92-3.48 190.92-3.60C190.92-3.81 191.00-3.98 191.16-4.10C191.32-4.23 191.54-4.29 191.80-4.29C192.02-4.29 192.22-4.25 192.40-4.17C192.57-4.09 192.73-3.98 192.87-3.84L193.20-4.23C193.03-4.40 192.83-4.54 192.59-4.65C192.35-4.76 192.08-4.81 191.80-4.81C191.58-4.81 191.39-4.78 191.21-4.72C191.03-4.66 190.87-4.57 190.74-4.46C190.61-4.34 190.50-4.21 190.43-4.06C190.35-3.90 190.32-3.74 190.32-3.56C190.32-3.39 190.35-3.23 190.40-3.10C190.46-2.97 190.54-2.86 190.63-2.76C190.72-2.66 190.82-2.58 190.94-2.51C191.05-2.45 191.16-2.39 191.28-2.34L191.95-2.05C192.06-1.99 192.17-1.94 192.26-1.90C192.36-1.85 192.44-1.79 192.51-1.73C192.58-1.67 192.64-1.60 192.68-1.52C192.72-1.43 192.74-1.33 192.74-1.21C192.74-0.98 192.65-0.79 192.48-0.65C192.31-0.51 192.06-0.44 191.75-0.44C191.51-0.44 191.27-0.49 191.04-0.60C190.81-0.71 190.61-0.85 190.45-1.03ZM194.28-4.73L194.28 0L197.08 0L197.08-0.51L194.88-0.51L194.88-2.23L196.67-2.23L196.67-2.74L194.88-2.74L194.88-4.22L197.00-4.22L197.00-4.73ZM200.51-4.22L200.51 0L201.12 0L201.12-4.22L202.55-4.22L202.55-4.73L199.09-4.73L199.09-4.22ZM203.99-2.49L203.99-4.24L204.79-4.24C205.16-4.24 205.44-4.18 205.64-4.06C205.83-3.93 205.93-3.71 205.93-3.40C205.93-3.09 205.83-2.86 205.64-2.71C205.44-2.56 205.16-2.49 204.79-2.49ZM205.99 0L206.67 0L205.47-2.06C205.79-2.14 206.05-2.29 206.24-2.51C206.43-2.74 206.53-3.03 206.53-3.40C206.53-3.65 206.49-3.85 206.41-4.02C206.33-4.19 206.21-4.33 206.07-4.43C205.92-4.54 205.74-4.61 205.54-4.66C205.34-4.70 205.11-4.73 204.87-4.73L203.40-4.73L203.40 0L203.99 0L203.99-2.00L204.85-2.00ZM209.52-1.92L208.10-1.92L208.32-2.64C208.41-2.91 208.49-3.17 208.57-3.43C208.65-3.70 208.72-3.96 208.79-4.24L208.82-4.24C208.90-3.96 208.98-3.70 209.05-3.43C209.13-3.17 209.21-2.91 209.30-2.64ZM209.67-1.44L210.12 0L210.76 0L209.16-4.73L208.48-4.73L206.88 0L207.50 0L207.95-1.44ZM211.08-2.36C211.08-1.98 211.14-1.63 211.24-1.33C211.34-1.02 211.49-0.77 211.67-0.56C211.86-0.35 212.08-0.19 212.33-0.08C212.58 0.03 212.85 0.09 213.15 0.09C213.46 0.09 213.72 0.03 213.96-0.09C214.19-0.21 214.41-0.38 214.59-0.60L214.25-0.97C214.10-0.80 213.94-0.67 213.77-0.58C213.60-0.49 213.40-0.44 213.17-0.44C212.94-0.44 212.74-0.49 212.56-0.58C212.38-0.67 212.23-0.80 212.10-0.97C211.98-1.13 211.88-1.34 211.81-1.57C211.74-1.81 211.70-2.08 211.70-2.38C211.70-2.67 211.74-2.94 211.81-3.17C211.88-3.41 211.99-3.61 212.11-3.77C212.24-3.94 212.40-4.07 212.58-4.15C212.77-4.24 212.97-4.29 213.20-4.29C213.40-4.29 213.57-4.25 213.73-4.17C213.88-4.09 214.01-3.98 214.14-3.85L214.48-4.23C214.34-4.38 214.16-4.52 213.95-4.64C213.73-4.75 213.48-4.81 213.19-4.81C212.89-4.81 212.61-4.76 212.35-4.64C212.09-4.53 211.87-4.37 211.68-4.16C211.50-3.95 211.35-3.69 211.24-3.39C211.14-3.08 211.08-2.74 211.08-2.36ZM215.47-4.73L215.47 0L216.07 0L216.07-1.50L216.89-2.46L218.30 0L218.97 0L217.26-2.93L218.74-4.73L218.06-4.73L216.09-2.36L216.07-2.36L216.07-4.73ZM219.65-4.73L219.65 0L220.24 0L220.24-4.73ZM221.54-4.73L221.54 0L222.11 0L222.11-2.47C222.11-2.72 222.10-2.97 222.08-3.22C222.07-3.46 222.05-3.71 222.03-3.95L222.06-3.95L222.57-2.98L224.29 0L224.91 0L224.91-4.73L224.34-4.73L224.34-2.28C224.34-2.03 224.34-1.78 224.36-1.52C224.38-1.27 224.39-1.02 224.41-0.78L224.38-0.78L223.87-1.76L222.16-4.73ZM225.93-2.36C225.93-1.98 225.98-1.63 226.09-1.33C226.19-1.02 226.34-0.77 226.53-0.56C226.71-0.35 226.94-0.19 227.20-0.08C227.46 0.03 227.74 0.09 228.05 0.09C228.37 0.09 228.66 0.03 228.91-0.07C229.16-0.17 229.36-0.30 229.52-0.46L229.52-2.45L227.97-2.45L227.97-1.95L228.97-1.95L228.97-0.72C228.87-0.63 228.75-0.57 228.60-0.52C228.45-0.46 228.29-0.44 228.12-0.44C227.86-0.44 227.64-0.49 227.45-0.58C227.25-0.67 227.09-0.80 226.96-0.97C226.82-1.13 226.72-1.34 226.65-1.57C226.58-1.81 226.55-2.08 226.55-2.38C226.55-2.67 226.59-2.94 226.66-3.17C226.73-3.41 226.84-3.61 226.97-3.77C227.11-3.94 227.27-4.07 227.46-4.15C227.66-4.24 227.87-4.29 228.11-4.29C228.35-4.29 228.55-4.25 228.71-4.16C228.86-4.08 229.00-3.97 229.12-3.85L229.46-4.23C229.32-4.37 229.14-4.51 228.92-4.63C228.70-4.75 228.43-4.81 228.10-4.81C227.79-4.81 227.50-4.76 227.23-4.64C226.97-4.53 226.74-4.37 226.54-4.16C226.35-3.95 226.20-3.69 226.09-3.39C225.98-3.08 225.93-2.74 225.93-2.36Z" transform="translate(-0.6485368757440942, 4.813584811078388)"></path></g></g></g></g></g></g><defs v-gra="od"></defs></svg>